  0
SECTION
  2
HEADER
  9
$ACADVER
  1
AC1009
  9
$INSBASE
 10
0.0
 20
0.0
 30
0.0
  9
$EXTMIN
 10
-126.390318956503
 20
19.9998330419284
 30
0.0
  9
$EXTMAX
 10
126.339690111308
 20
170.021896599854
 30
0.0
  9
$LIMMIN
 10
0.0
 20
0.0
  9
$LIMMAX
 10
12.0000
 20
 9.0000
9
$ORTHOMODE
70
0
9
$REGENMODE
70
1
9
$FILLMODE
70
1
9
$QTEXTMODE
70
0
9
$MIRRTEXT
70
1
9
$DRAGMODE
70
2
9
$LTSCALE
40
1.0
9
$OSMODE
70
0
9
$ATTMODE
70
1
9
$TEXTSIZE
40
0.2
9
$TRACEWID
40
0.05
9
$TEXTSTYLE
7
STANDARD
9
$CLAYER
8
0
9
$CELTYPE
6
BYLAYER
9
$CECOLOR
62
256
9
$DIMSCALE
40
1.0
9
$DIMASZ
40
0.18
9
$DIMEXO
40
0.0625
9
$DIMDLI
40
0.38
9
$DIMRND
40
0.0
9
$DIMDLE
40
0.0
9
$DIMEXE
40
0.18
9
$DIMTP
40
0.0
9
$DIMTM
40
0.0
9
$DIMTXT
40
0.18
9
$DIMCEN
40
0.09
9
$DIMTSZ
40
0.0
9
$DIMTOL
70
0
9
$DIMLIM
70
0
9
$DIMTIH
70
1
9
$DIMTOH
70
1
9
$DIMSE1
70
0
9
$DIMSE2
70
0
9
$DIMTAD
70
0
9
$DIMZIN
70
0
9
$DIMBLK
1

9
$DIMASO
70
1
9
$DIMSHO
70
1
9
$DIMPOST
1

9
$DIMAPOST
1

9
$DIMALT
70
0
9
$DIMALTD
70
2
9
$DIMALTF
40
25.4
9
$DIMLFAC
40
1.0
9
$DIMTOFL
70
0
9
$DIMTVP
40
0.0
9
$DIMTIX
70
0
9
$DIMSOXD
70
0
9
$DIMSAH
70
0
9
$DIMBLK1
1

9
$DIMBLK2
1

9
$DIMSTYLE
2
*UNNAMED
9
$DIMCLRD
70
0
9
$DIMCLRE
70
0
9
$DIMCLRT
70
0
9
$DIMTFAC
40
1.0
9
$DIMGAP
40
0.09
9
$LUNITS
70
2
9
$LUPREC
70
4
9
$SKETCHINC
40
0.1
9
$FILLETRAD
40
0.0
9
$AUNITS
70
0
9
$AUPREC
70
0
9
$MENU
1
acad
9
$ELEVATION
40
0.0
9
$PELEVATION
40
0.0
9
$THICKNESS
40
0.0
9
$LIMCHECK
70
0
9
$BLIPMODE
70
1
9
$CHAMFERA
40
0.0
9
$CHAMFERB
40
0.0
9
$SKPOLY
70
0
9
$TDCREATE
40
2449214.701881018
9
$TDUPDATE
40
2449214.701881018
9
$TDINDWG
40
0.0000000000
9
$TDUSRTIMER
40
0.0000000000
9
$USRTIMER
70
1
9
$ANGBASE
50
0.0
9
$ANGDIR
70
0
9
$PDMODE
70
0
9
$PDSIZE
40
0.0
9
$PLINEWID
40
0.0
9
$COORDS
70
1
9
$SPLFRAME
70
0
9
$SPLINETYPE
70
6
9
$SPLINESEGS
70
8
9
$ATTDIA
70
0
9
$ATTREQ
70
1
9
$HANDLING
70
0
9
$HANDSEED
5
0
9
$SURFTAB1
70
6
9
$SURFTAB2
70
6
9
$SURFTYPE
70
6
9
$SURFU
70
6
9
$SURFV
70
6
9
$UCSNAME
2

9
$UCSORG
10
0.0
20
0.0
30
0.0
9
$UCSXDIR
10
1.0
20
0.0
30
0.0
9
$UCSYDIR
10
0.0
20
1.0
30
0.0
9
$PUCSNAME
2

9
$PUCSORG
10
0.0
20
0.0
30
0.0
9
$PUCSXDIR
10
1.0
20
0.0
30
0.0
9
$PUCSYDIR
10
0.0
20
1.0
30
0.0
9
$USERI1
70
0
9
$USERI2
70
0
9
$USERI3
70
0
9
$USERI4
70
0
9
$USERI5
70
0
9
$USERR1
40
0.0
9
$USERR2
40
0.0
9
$USERR3
40
0.0
9
$USERR4
40
0.0
9
$USERR5
40
0.0
9
$WORLDVIEW
70
1
9
$SHADEDGE
70
3
9
$SHADEDIF
70
70
9
$TILEMODE
70
1
9
$MAXACTVP
70
16
9
$PINSBASE
10
0.0
20
0.0
30
0.0
9
$PLIMCHECK
70
0
  9
$PEXTMIN
 10
1.0000000000000000E+020
 20
1.0000000000000000E+020
 30
1.0000000000000000E+020
  9
$PEXTMAX
 10
-1.0000000000000000E+020
 20
-1.0000000000000000E+020
 30
-1.0000000000000000E+020
  9
$PLIMMIN
 10
-126.390318956503
 20
19.9998330419284
  9
$PLIMMAX
 10
12.0000
 20
 9.0000
  9
$UNITMODE
 70
0
  9
$VISRETAIN
 70
1
  9
$PLINEGEN
 70
0
  9
$PSLTSCALE
 70
1
  0
ENDSEC
  0
SECTION
  2
TABLES
  0
TABLE
  2
VPORT
 70
3
  0
VPORT
  2
*ACTIVE
 70
0
 10
0.0
 20
0.0
 11
1.0
 21
1.0
 12
-0.0253144225976243
 22
95.0108648208912
 13
0.0
 23
0.0
 14
1.0
 24
1.0
 15
1.0
 25
1.0
 16
0.0
 26
0.0
 36
1.0
 17
0.0
 27
0.0
 37
0.0
 40
150.022063557926
 41
1.68461893586891
 42
50.0
 43
0.0
 44
0.0
 50
0.0
 51
0.0
 71
0
 72
100
 73
1
 74
3
 75
0
 76
0
 77
0
 78
0
  0
ENDTAB
0
TABLE
2
LTYPE
70
1
0
LTYPE
2
CONTINUOUS
70
64
3
Solid line
72
65
73
0
40
0.0
0
ENDTAB
  0
TABLE
  2
LAYER
 70
2
  0
LAYER
  2
Slice
 70
0
 62
7
  6
CONTINUOUS
  0
ENDTAB
0
TABLE
2
STYLE
70
1
0
STYLE
2
STANDARD
70
64
40
0.0
41
1.0
50
0.0
71
0
42
0.2
3
txt
4

0
ENDTAB
0
TABLE
2
VIEW
70
0
0
ENDTAB
0
TABLE
2
UCS
70
0
0
ENDTAB
0
TABLE
2
APPID
70
1
0
APPID
2
ACAD
70
64
0
ENDTAB
0
TABLE
2
DIMSTYLE
70
0
0
ENDTAB
0
ENDSEC
0
SECTION
2
BLOCKS
0
ENDSEC
  0
SECTION
  2
ENTITIES
  0
ARC
  5
0
  8
Slice
 10
109.579487160458
 20
110.330575968999
 30
0
 40
0.499999999999967
 50
-134.9885408441
 51
-44.9885408440928
  0
LINE
  5
0
  8
Slice
 10
-69.6634549343504
 20
113.986069588827
 30
0
 11
-20.3227995938475
 21
113.995937720028
 31
0
  0
LINE
  5
0
  8
Slice
 10
9.12435157260728
 20
21.9857751371079
 30
0
 11
10.1071437117723
 21
22.4173068406888
 31
0
  0
LINE
  5
0
  8
Slice
 10
7.0668250297853
 20
21.2146172248856
 30
0
 11
8.11326950590627
 21
21.5825220473545
 31
0
  0
LINE
  5
0
  8
Slice
 10
-20.0227395998479
 20
113.695997726027
 30
0
 11
-20.0057922197277
 21
28.9590982543088
 31
0
  0
ARC
  5
0
  8
Slice
 10
112.377161303071
 20
137.175809734448
 30
0
 40
0.500000000000017
 50
135.011459155899
 51
216.798248454171
  0
LINE
  5
0
  8
Slice
 10
113.462846814313
 20
138.969177851752
 30
0
 11
112.023537208871
 21
137.529292407292
 31
0
  0
LINE
  5
0
  8
Slice
 10
-8.12190186543342
 20
21.579275013037
 30
0
 11
-7.07531031110295
 21
21.2117887977797
 31
0
  0
LINE
  5
0
  8
Slice
 10
-10.1161098256979
 20
22.4132621899274
 30
0
 11
-9.13314515247946
 21
21.9821236377142
 31
0
  0
LINE
  5
0
  8
Slice
 10
-9.13314515247946
 20
21.9821236377142
 30
0
 11
-8.12190186543342
 21
21.579275013037
 31
0
  0
ARC
  5
0
  8
Slice
 10
-113.871908079788
 20
138.570157502503
 30
0
 40
0.500000000000007
 50
45.0114591559026
 51
135.011459155899
  0
LINE
  5
0
  8
Slice
 10
4.86784884928339
 20
20.5848523818011
 30
0
 11
5.98501814424434
 21
20.8820606697011
 31
0
  0
LINE
  5
0
  8
Slice
 10
-12.951889390043
 20
23.8198375567111
 30
0
 11
-12.0254819444797
 21
23.3321191494259
 31
0
  0
LINE
  5
0
  8
Slice
 10
-57.4691977502054
 20
154.02249691985
 30
0
 11
-38.4691981302056
 21
154.018696919875
 31
0
  0
LINE
  5
0
  8
Slice
 10
-15.4038816457921
 20
24.3551681518008
 30
0
 11
-13.9457274469814
 21
24.3365709484839
 31
0
  0
ARC
  5
0
  8
Slice
 10
-54.4674978102167
 20
162.521896749854
 30
0
 40
0.50000000000002
 50
-90.011459155902
 51
-0.0114591559077397
  0
LINE
  5
0
  8
Slice
 10
-80.7038184354779
 20
103.148437273807
 30
0
 11
-70.016979028551
 21
113.839552271672
 31
0
  0
ARC
  5
0
  8
Slice
 10
54.4674978102167
 20
162.521896749854
 30
0
 40
0.499999999999999
 50
-179.988540844092
 51
-89.988540844098
  0
ARC
  5
0
  8
Slice
 10
57.4676977502154
 20
161.52249676985
 30
0
 40
0.499999999999971
 50
0.0114591559012266
 51
90.0114591559029
  0
ARC
  5
0
  8
Slice
 10
-57.4676977502154
 20
161.52249676985
 30
0
 40
0.50000000000002
 50
89.9885408440971
 51
179.988540844099
  0
LINE
  5
0
  8
Slice
 10
-5.99337048948801
 20
20.8796649919424
 30
0
 11
-4.87608240058861
 21
20.5829035955251
 31
0
  0
LINE
  5
0
  8
Slice
 10
-4.87608240058861
 20
20.5829035955251
 30
0
 11
-3.70930673749105
 21
20.3356495722958
 31
0
  0
LINE
  5
0
  8
Slice
 10
2.47084317602956
 20
20.1530378355096
 30
0
 11
3.70117218113453
 21
20.3371316680992
 31
0
  0
LINE
  5
0
  8
Slice
 10
-7.07531031110295
 20
21.2117887977797
 30
0
 11
-5.99337048948801
 21
20.8796649919424
 31
0
  0
ARC
  5
0
  8
Slice
 10
-41.467498070217
 20
162.519296749871
 30
0
 40
0.499999999999971
 50
179.988540844096
 51
269.9885408441
  0
LINE
  5
0
  8
Slice
 10
-70.8436074626155
 20
95.5917113350759
 30
0
 11
-80.134196042143
 21
99.9217219973047
 31
0
  0
LINE
  5
0
  8
Slice
 10
-0.836790348150681
 20
19.9998330419284
 30
0
 11
0.828790348204038
 21
20.0001661580721
 31
0
  0
LINE
  5
0
  8
Slice
 10
126.193172784152
 20
126.950908396392
 30
0
 11
114.169953581357
 21
138.969319273107
 31
0
  0
ARC
  5
0
  8
Slice
 10
-79.2893220586785
 20
101.734506582429
 30
0
 40
1.99999999999999
 50
135.011459155903
 51
245.011459155894
  0
LINE
  5
0
  8
Slice
 10
-37.9690981402063
 20
154.518596909876
 30
0
 11
-37.9676981402156
 21
161.518596769876
 31
0
  0
ARC
  5
0
  8
Slice
 10
-69.6633549343512
 20
113.486069598828
 30
0
 40
0.49999999999975
 50
90.0114591558866
 51
135.011459155904
  0
ARC
  5
0
  8
Slice
 10
-15.400055776557
 20
24.6551437553499
 30
0
 40
0.299999999999998
 50
-134.98854084408
 51
-90.7307070079701
  0
LINE
  5
0
  8
Slice
 10
-54.4675978102161
 20
162.021896759854
 30
0
 11
-57.4675977502161
 21
162.02249675985
 31
0
  0
LINE
  5
0
  8
Slice
 10
-53.9660978202261
 20
169.521796609855
 30
0
 11
-53.9674978202167
 21
162.521796749855
 31
0
  0
LINE
  5
0
  8
Slice
 10
-2.47890419328133
 20
20.1520478860225
 30
0
 11
-0.836790348150681
 21
19.9998330419284
 31
0
  0
LINE
  5
0
  8
Slice
 10
-3.70930673749105
 20
20.3356495722958
 30
0
 11
-2.47890419328133
 21
20.1520478860225
 31
0
  0
ARC
  5
0
  8
Slice
 10
-19.7057922257281
 20
28.9591582543084
 30
0
 40
0.299999999999624
 50
-179.988540844097
 51
-134.988540844097
  0
ARC
  5
0
  8
Slice
 10
125.839690111308
 20
126.597284302192
 30
0
 40
0.500000000000027
 50
-44.9885408440974
 51
45.0114591559015
  0
LINE
  5
0
  8
Slice
 10
0.828790348204038
 20
20.0001661580721
 30
0
 11
2.47084317602956
 21
20.1530378355096
 31
0
  0
LINE
  5
0
  8
Slice
 10
5.98501814424434
 20
20.8820606697011
 30
0
 11
7.0668250297853
 21
21.2146172248856
 31
0
  0
LINE
  5
0
  8
Slice
 10
3.70117218113453
 20
20.3371316680992
 30
0
 11
4.86784884928339
 21
20.5848523818011
 31
0
  0
ARC
  5
0
  8
Slice
 10
-71.68848144608
 20
93.7789267499516
 30
0
 40
2.00000000000003
 50
-44.9885408440974
 51
65.0114591558934
  0
ARC
  5
0
  8
Slice
 10
-38.4690981302063
 20
154.518696909875
 30
0
 40
0.499999999999964
 50
-90.0114591559045
 51
-0.0114591559012266
  0
LINE
  5
0
  8
Slice
 10
8.11326950590627
 20
21.5825220473545
 30
0
 11
9.12435157260728
 21
21.9857751371079
 31
0
  0
ARC
  5
0
  8
Slice
 10
-20.3227395938479
 20
113.695937726027
 30
0
 40
0.299999999999965
 50
0.0114591559147976
 51
90.0114591559046
  0
LINE
  5
0
  8
Slice
 10
-80.9800589931215
 20
81.6546388484486
 30
0
 11
-70.2739850692806
 21
92.3649960585733
 31
0
  0
ARC
  5
0
  8
Slice
 10
38.4690981302063
 20
154.518696909875
 30
0
 40
0.499999999999971
 50
-179.988540844099
 51
-89.9885408440955
  0
LINE
  5
0
  8
Slice
 10
-19.9178818294348
 20
28.7469837977885
 30
0
 11
-15.6121453802637
 21
24.4429692988299
 31
0
  0
ARC
  5
0
  8
Slice
 10
-54.4660978102261
 20
169.521896609854
 30
0
 40
0.499999999999985
 50
-0.0114591559012263
 51
89.9885408440963
  0
ARC
  5
0
  8
Slice
 10
113.816470908513
 20
138.615695178907
 30
0
 40
0.499999999999957
 50
45.0114591559038
 51
135.011459155903
  0
ARC
  5
0
  8
Slice
 10
-81.3336830873213
 20
82.0081215212931
 30
0
 40
0.499999999999897
 50
-134.988540844096
 51
-44.9885408440974
  0
LINE
  5
0
  8
Slice
 10
-13.8025272418002
 20
24.2980974165169
 30
0
 11
-12.951889390043
 21
23.8198375567111
 31
0
  0
ARC
  5
0
  8
Slice
 10
105.86671701407
 20
112.627930499778
 30
0
 40
0.499999999999997
 50
45.0114591559015
 51
135.011459155898
  0
LINE
  5
0
  8
Slice
 10
-38.4675981302163
 20
162.018696759875
 30
0
 11
-41.4675980702163
 21
162.019296759871
 31
0
  0
ARC
  5
0
  8
Slice
 10
-13.9495533162166
 20
24.0365953449349
 30
0
 40
0.29999999999998
 50
60.6537056130946
 51
89.2692929920142
  0
LINE
  5
0
  8
Slice
 10
-41.9674980602169
 20
162.519396749871
 30
0
 11
-41.9660980602262
 21
169.519396609871
 31
0
  0
LINE
  5
0
  8
Slice
 10
-57.9676977402154
 20
161.522596769849
 30
0
 11
-57.9690977402061
 21
154.522596909849
 31
0
  0
ARC
  5
0
  8
Slice
 10
54.4660978102261
 20
169.521896609854
 30
0
 40
0.50000000000002
 50
90.0114591559037
 51
180.011459155901
  0
ARC
  5
0
  8
Slice
 10
-109.628560370745
 20
135.035472195412
 30
0
 40
2.99999999999962
 50
143.224669857641
 51
315.011459155902
  0
LINE
  5
0
  8
Slice
 10
107.453641375955
 20
132.957568250354
 30
0
 11
70.3823041953268
 21
170.014079861027
 31
0
  0
LINE
  5
0
  8
Slice
 10
-112.078539962484
 20
137.484471991261
 30
0
 11
-113.518425406943
 21
138.923781596702
 31
0
  0
ARC
  5
0
  8
Slice
 10
-112.432022635328
 20
137.130847897061
 30
0
 40
0.500000000000643
 50
-36.7753301423634
 51
45.0114591559038
  0
ARC
  5
0
  8
Slice
 10
-38.4676981302156
 20
161.518696769875
 30
0
 40
0.499999999999999
 50
-0.011459155901226
 51
89.9885408440955
  0
LINE
  5
0
  8
Slice
 10
41.9674980602169
 20
162.519396749871
 30
0
 11
41.9660980602262
 21
169.519396609871
 31
0
  0
LINE
  5
0
  8
Slice
 10
-126.243801629347
 20
126.193314205508
 30
0
 11
-109.977093296154
 21
109.933111254658
 31
0
  0
ARC
  5
0
  8
Slice
 10
-91.9479213461733
 20
120.189765621362
 30
0
 40
5.5
 50
-134.988540844097
 51
45.0114591559025
  0
ARC
  5
0
  8
Slice
 10
41.467498070217
 20
162.519296749871
 30
0
 40
0.499999999999964
 50
-89.9885408441004
 51
0.0114591559044835
  0
ARC
  5
0
  8
Slice
 10
-109.62361062331
 20
110.286735348858
 30
0
 40
0.499999999999977
 50
-134.988540844101
 51
-44.9885408440962
  0
ARC
  5
0
  8
Slice
 10
-41.4660980702263
 20
169.519296609871
 30
0
 40
0.50000000000002
 50
89.9885408441004
 51
179.988540844099
  0
LINE
  5
0
  8
Slice
 10
57.9676977402154
 20
161.522596769849
 30
0
 11
57.9690977402061
 21
154.522596909849
 31
0
  0
LINE
  5
0
  8
Slice
 10
53.9660978202261
 20
169.521796609855
 30
0
 11
53.9674978202167
 21
162.521796749855
 31
0
  0
LINE
  5
0
  8
Slice
 10
38.4675981302163
 20
162.018696759875
 30
0
 11
41.4675980702163
 21
162.019296759871
 31
0
  0
LINE
  5
0
  8
Slice
 10
37.9690981402063
 20
154.518596909876
 30
0
 11
37.9676981402156
 21
161.518596769876
 31
0
  0
LINE
  5
0
  8
Slice
 10
-70.4503041948734
 20
169.985913338973
 30
0
 11
-107.506815805546
 21
132.914576158345
 31
0
  0
LINE
  5
0
  8
Slice
 10
54.4675978102161
 20
162.021896759854
 30
0
 11
57.4675977502161
 21
162.02249675985
 31
0
  0
ARC
  5
0
  8
Slice
 10
-57.4690977502061
 20
154.52249690985
 30
0
 40
0.499999999999985
 50
179.988540844099
 51
269.988540844096
  0
ARC
  5
0
  8
Slice
 10
57.4690977502061
 20
154.52249690985
 30
0
 40
0.499999999999992
 50
-89.9885408440955
 51
0.0114591559012263
  0
LINE
  5
0
  8
Slice
 10
57.4691977502054
 20
154.02249691985
 30
0
 11
38.4691981302056
 21
154.018696919875
 31
0
  0
ARC
  5
0
  8
Slice
 10
91.8998380853733
 20
120.226535173738
 30
0
 40
5.5
 50
-44.9885408440978
 51
135.011459155902
  0
LINE
  5
0
  8
Slice
 10
-12.0254819444797
 20
23.3321191494259
 30
0
 11
-11.0849351920026
 21
22.8585457059087
 31
0
  0
LINE
  5
0
  8
Slice
 10
-11.0849351920026
 20
22.8585457059087
 30
0
 11
-10.1161098256979
 21
22.4132621899274
 31
0
  0
ARC
  5
0
  8
Slice
 10
41.4660980702263
 20
169.519296609871
 30
0
 40
0.499999999999978
 50
0.0114591559012264
 51
90.0114591558996
  0
ARC
  5
0
  8
Slice
 10
38.4676981302156
 20
161.518696769875
 30
0
 40
0.499999999999992
 50
90.0114591559045
 51
180.011459155901
  0
LINE
  5
0
  8
Slice
 10
-114.225532173988
 20
138.923640175347
 30
0
 11
-126.243943050703
 21
126.900420972552
 31
0
  0
ARC
  5
0
  8
Slice
 10
-0.0311126981647342
 20
155.563488749771
 30
0
 40
5.49999999999932
 50
-89.9885408440899
 51
90.0114591559099
  0
ARC
  5
0
  8
Slice
 10
-0.00989949487058966
 20
49.4974736931091
 30
0
 40
5.49999999999984
 50
-89.9885408440974
 51
90.0114591559025
  0
LINE
  5
0
  8
Slice
 10
12.0161481350303
 20
23.3369274755059
 30
0
 11
12.9423604191233
 21
23.825016406742
 31
0
  0
LINE
  5
0
  8
Slice
 10
11.0757908871693
 20
22.8629778511836
 30
0
 11
12.0161481350303
 21
23.3369274755059
 31
0
  0
LINE
  5
0
  8
Slice
 10
12.9423604191233
 20
23.825016406742
 30
0
 11
13.7928068988906
 21
24.3036164834186
 31
0
  0
LINE
  5
0
  8
Slice
 10
10.1071437117723
 20
22.4173068406888
 30
0
 11
11.0757908871693
 21
22.8629778511836
 31
0
  0
LINE
  5
0
  8
Slice
 10
19.9942069802716
 20
28.9670982542554
 30
0
 11
19.9772596001512
 21
113.703997725974
 31
0
  0
ARC
  5
0
  8
Slice
 10
13.9399375623708
 20
24.0421732431849
 30
0
 40
0.299999999999997
 50
90.7536253197907
 51
119.369212698711
  0
ARC
  5
0
  8
Slice
 10
19.6942069862719
 20
28.9670382542558
 30
0
 40
0.30000000000001
 50
-44.9885408440977
 51
0.0114591559005618
  0
ARC
  5
0
  8
Slice
 10
20.2772595941512
 20
113.704057725973
 30
0
 40
0.300000000000061
 50
90.0114591559019
 51
180.01145915589
  0
LINE
  5
0
  8
Slice
 10
99.150404808668
 20
106.616179477025
 30
0
 11
105.51309291987
 21
112.981413172623
 31
0
  0
LINE
  5
0
  8
Slice
 10
20.2771995941516
 20
114.004057719973
 30
0
 11
69.6178549346545
 21
114.013925851173
 31
0
  0
ARC
  5
0
  8
Slice
 10
-0.0311126981647342
 20
155.563488749771
 30
0
 40
5.49999999999926
 50
90.0114591559099
 51
270.01145915591
  0
LINE
  5
0
  8
Slice
 10
-70.4503041948734
 20
169.985913338973
 30
0
 11
70.3823041953268
 21
170.014079861027
 31
0
  0
ARC
  5
0
  8
Slice
 10
79.2486219139851
 20
101.766214171646
 30
0
 40
1.99999999999987
 50
-64.9885408440888
 51
45.0114591559029
  0
ARC
  5
0
  8
Slice
 10
71.650964141302
 20
93.8075946394512
 30
0
 40
1.99999999999988
 50
115.011459155912
 51
225.011459155902
  0
ARC
  5
0
  8
Slice
 10
69.617954934654
 20
113.513925861173
 30
0
 40
0.499999999999977
 50
45.0114591559038
 51
90.0114591559191
  0
ARC
  5
0
  8
Slice
 10
91.8998380853733
 20
120.226535173738
 30
0
 40
5.50000000000001
 50
135.011459155902
 51
315.011459155902
  0
LINE
  5
0
  8
Slice
 10
70.2370334499238
 20
92.3930982626518
 30
0
 11
80.9473906600485
 21
81.6870243388109
 31
0
  0
LINE
  5
0
  8
Slice
 10
80.0942209436744
 20
99.9537676811291
 30
0
 11
70.8053651116127
 21
95.6200411299684
 31
0
  0
ARC
  5
0
  8
Slice
 10
81.3008733328931
 20
82.0406484330108
 30
0
 40
0.500000000000027
 50
-134.988540844097
 51
-44.9885408440985
  0
ARC
  5
0
  8
Slice
 10
-125.890318956503
 20
126.546938299708
 30
0
 40
0.499999999999977
 50
135.011459155901
 51
225.011459155903
  0
LINE
  5
0
  8
Slice
 10
69.9714376074985
 20
113.867549955373
 30
0
 11
80.6625526053634
 21
103.180710548446
 31
0
  0
ARC
  5
0
  8
Slice
 10
15.3901924873134
 20
24.6613018050848
 30
0
 40
0.300000000000046
 50
-89.246374680225
 51
-44.988540844115
  0
LINE
  5
0
  8
Slice
 10
106.220199686914
 20
112.981554593978
 30
0
 11
109.226004487613
 21
109.976951874799
 31
0
  0
LINE
  5
0
  8
Slice
 10
109.933111254658
 20
109.977093296154
 30
0
 11
126.193314205507
 21
126.243801629348
 31
0
  0
ARC
  5
0
  8
Slice
 10
109.574537413023
 20
135.079312815553
 30
0
 40
2.99999999999997
 50
-134.988540844097
 51
36.7982484541633
  0
LINE
  5
0
  8
Slice
 10
-109.26998652911
 20
109.933252676013
 30
0
 11
-106.265383809931
 21
112.939057476712
 31
0
  0
ARC
  5
0
  8
Slice
 10
-99.5465260201337
 20
106.222886692665
 30
0
 40
0.500000000000017
 50
-44.9885408440962
 51
45.011459155905
  0
LINE
  5
0
  8
Slice
 10
-99.1929019259339
 20
105.869404019821
 30
0
 11
-102.197504645113
 21
102.863599219122
 31
0
  0
ARC
  5
0
  8
Slice
 10
-101.843880550913
 20
102.510116546278
 30
0
 40
0.499999999999997
 50
135.011459155904
 51
225.011459155901
  0
LINE
  5
0
  8
Slice
 10
-102.197363223757
 20
102.156492452078
 30
0
 11
-81.6871657601658
 21
81.6544974270933
 31
0
  0
ARC
  5
0
  8
Slice
 10
-0.00989949487058966
 20
49.4974736931091
 30
0
 40
5.49999999999983
 50
90.0114591559025
 51
270.011459155903
  0
LINE
  5
0
  8
Slice
 10
-105.558277042887
 20
112.939198898067
 30
0
 11
-99.1930433472892
 21
106.576510786865
 31
0
  0
ARC
  5
0
  8
Slice
 10
-105.911759715731
 20
112.585574803867
 30
0
 40
0.499999999999977
 50
45.0114591559061
 51
135.011459155903
  0
ARC
  5
0
  8
Slice
 10
-91.9479213461733
 20
120.189765621362
 30
0
 40
5.50000000000001
 50
45.0114591559025
 51
225.011459155903
  0
LINE
  5
0
  8
Slice
 10
81.6544974270929
 20
81.6871657601663
 30
0
 11
102.156492452077
 21
102.197363223758
 31
0
  0
LINE
  5
0
  8
Slice
 10
102.156351030722
 20
102.904469990802
 30
0
 11
99.1505462300233
 21
105.909072709981
 31
0
  0
ARC
  5
0
  8
Slice
 10
99.5040289028678
 20
106.262696804181
 30
0
 40
0.499999999999997
 50
135.011459155899
 51
225.011459155901
  0
ARC
  5
0
  8
Slice
 10
101.802868357878
 20
102.550845896602
 30
0
 40
0.499999999999937
 50
-44.9885408440985
 51
45.011459155905
  0
LINE
  5
0
  8
Slice
 10
15.6023669438333
 20
24.449212201378
 30
0
 11
19.9063814427919
 21
28.7549486505491
 31
0
  0
LINE
  5
0
  8
Slice
 10
13.9359917032034
 20
24.3421472923883
 30
0
 11
15.3941383464807
 21
24.3613277558814
 31
0
  0
ENDSEC
  0
EOF
